<svg width="506" height="213" viewBox="0 0 506 213" fill="none" xmlns="http://www.w3.org/2000/svg">
<path d="M126.911 1.59995C127.211 2.49995 127.511 6.49995 127.511 10.7V18.2L139.311 17.9C148.311 17.6 151.611 17.1 153.411 15.8C157.311 13.1 159.511 8.89995 159.511 4.19995V-4.90993e-05H142.911C128.211 -4.90993e-05 126.411 0.199951 126.911 1.59995Z" fill="black"/>
<path d="M445.111 24.1C434.111 26.7 422.211 36.7 416.411 48.3C410.411 60.1 408.811 77.2 412.511 91.4C418.411 114.6 434.911 127 459.911 127C475.311 127 485.211 123.8 493.711 116.2C498.411 112 503.511 104.5 503.511 101.8C503.511 99.6 499.811 97.6 491.711 95.6L485.511 93.9L479.111 99.4C471.311 106 464.711 107.9 455.611 106.1C441.711 103.3 433.511 91.6 433.511 74.4C433.511 56 444.711 43.7 461.411 43.8C469.711 43.8 475.211 46.3 481.111 52.7L485.211 57.2L494.111 54.5C499.011 53 503.411 51.4 503.911 50.9C505.211 49.7 502.811 44.7 498.011 38.1C493.111 31.6 485.811 26.8 477.011 24.5C470.511 22.8 451.611 22.6 445.111 24.1Z" fill="black"/>
<path d="M25.1105 27C18.1105 29.2 9.61052 34.8 6.01052 39.6C2.51052 44.2 -0.88948 52 0.21052 53C0.61052 53.5 5.01052 55 9.81052 56.5L18.6105 59.3L23.3105 54.3C29.6105 47.5 33.3105 45.8 41.3105 45.8C49.6105 45.9 57.4105 49.6 62.2105 55.8C65.5105 60.2 68.3105 67.5 67.2105 68.7C66.8105 69 59.3105 69.5 50.5105 69.8L34.5105 70.3V78.6V87H51.1105H67.8105L67.2105 90C65.8105 96.5 58.7105 104.1 51.2105 106.9C47.2105 108.4 36.0105 108.3 32.2105 106.6C30.4105 105.9 27.1105 103.2 24.8105 100.6C22.6105 98.1 19.9105 96 18.9105 96C17.9105 96 13.4105 97.1 8.81052 98.5C-0.78948 101.4 -0.989479 101.9 3.41052 109.6C7.01052 115.8 11.7105 120 19.8105 124.3L26.0105 127.5H41.5105C55.2105 127.5 57.6105 127.2 62.5105 125.2C70.6105 122 79.1105 114.7 83.7105 107C89.8105 96.8 91.0105 91.6 90.9105 76C90.8105 64.5 90.4105 61.6 88.5105 56.5C82.4105 40.5 71.7105 30.4 56.8105 26.5C48.6105 24.4 32.6105 24.6 25.1105 27Z" fill="black"/>
<path d="M169.711 28.5001C168.611 29.8001 159.511 44.1001 149.411 60.2001L131.011 89.4001L130.411 58.4001C130.111 41.4001 129.811 27.4001 129.711 27.2001C129.611 27.1001 124.811 27.0001 119.011 27.0001H108.511V76.5001V126.1L119.711 125.8L130.911 125.5L142.011 108.8C148.011 99.6001 157.111 85.9001 162.011 78.3001L171.011 64.5001L171.311 95.2001L171.511 126H182.011H192.511V82.1001C192.511 58.0001 192.211 35.5001 191.911 32.1001L191.211 26.0001H181.411C172.211 26.0001 171.511 26.1001 169.711 28.5001Z" fill="black"/>
<path d="M220.811 26.7C219.811 27.1 219.511 38 219.511 76.6V126H230.011H240.511V110.6V95.2L257.311 94.8C271.611 94.5 274.811 94.1 279.611 92.2C286.911 89.3 292.911 84 296.311 77.6C298.811 72.9 299.011 71.6 299.011 60.5C299.011 49.1 298.911 48.2 296.111 43.2C290.911 33.9 283.511 29.4 270.011 27.4C261.411 26.1 223.611 25.5 220.811 26.7ZM263.511 46.5C276.411 47.9 281.911 61.8 273.111 70.6C269.111 74.6 265.111 75.6 251.111 76.4L240.311 77L240.911 73.9C241.211 72.2 241.511 65 241.511 57.9V45L250.311 45.5C255.111 45.8 261.011 46.3 263.511 46.5Z" fill="black"/>
<path d="M309.511 26.4C309.511 27.6 314.311 37.8 328.011 65.6C336.511 82.7 343.711 97.8 344.011 99.2C344.511 101.2 344.011 102.5 341.811 105C339.411 107.7 338.011 108.3 333.011 108.9L327.011 109.5L326.711 115.5C326.511 118.8 326.711 123 327.011 124.8L327.611 128L334.311 127.4C343.911 126.5 348.311 125.2 353.811 121.8C357.711 119.3 359.511 117 364.211 108.6C371.411 95.8 403.511 29.6 403.511 27.5C403.511 26.2 401.711 26 392.111 26H380.811L377.511 33.2C375.611 37.2 372.111 45 369.511 50.5C367.011 56 363.611 63.5 362.011 67.2C360.411 71 358.811 74 358.411 74C358.011 74 352.311 63.2 345.611 50L333.411 26H321.411C314.911 26 309.511 26.2 309.511 26.4Z" fill="black"/>
<path d="M344.511 144.5C344.511 148.5 348.511 152.1 353.511 152.7C357.311 153.1 358.411 152.8 360.811 150.5C362.511 148.9 363.511 146.9 363.511 145.1V142.3L354.011 142.2C344.711 142.2 344.511 142.2 344.511 144.5Z" fill="black"/>
<path d="M280.511 161.8C272.711 167.2 269.511 173.7 269.511 183.9C269.511 193.3 271.411 199.4 276.111 204.8C280.811 210.3 286.711 213 294.111 213C302.511 213 307.111 211.4 312.111 206.8C319.111 200.3 320.811 195.7 320.311 184.2C319.811 173.6 318.811 170.6 313.411 165.2C307.911 159.6 303.711 158 294.211 158C286.211 158 285.611 158.1 280.511 161.8ZM303.311 171.3C304.611 172.5 306.411 174.8 307.211 176.3C309.111 180.1 309.111 191 307.111 194.8C302.611 203.6 290.711 204.8 284.811 197.2C280.011 190.9 280.411 176.1 285.511 171.5C289.811 167.6 299.211 167.5 303.311 171.3Z" fill="black"/>
<path d="M10.5107 185.5V212H15.9107C19.9107 212 21.4107 211.6 21.9107 210.4C22.2107 209.5 22.5107 202.5 22.5107 194.7V180.7L28.2107 192.4L33.9107 204.1L38.5107 203.8L43.0107 203.5L48.7107 192L54.4107 180.5L54.6107 187.5C54.7107 191.3 54.9107 197.9 55.0107 202C55.0107 206.1 55.2107 210.1 55.3107 210.7C55.4107 211.6 57.4107 212 61.0107 212H66.5107V185.5V159H59.6107H52.8107L45.9107 173.5C42.1107 181.5 38.8107 188 38.4107 188C38.1107 188 34.7107 181.5 31.0107 173.5L24.2107 159H17.3107H10.5107V185.5Z" fill="black"/>
<path d="M83.5107 185.5V212H89.8107L96.0107 211.9L104.411 197.4C109.111 189.4 113.411 182.1 114.211 181.2C115.211 179.8 115.411 182.3 115.511 195.7V212H121.011H126.511V185.5V159H120.511H114.511L105.311 174.7C100.211 183.3 95.9107 189.7 95.8107 188.9C95.6107 188.1 95.4107 181.2 95.3107 173.5L95.0107 159.5L89.3107 159.2L83.5107 158.9V185.5Z" fill="black"/>
<path d="M143.511 185.4V212H149.011H154.511V204.2V196.4L163.011 195.2C167.711 194.6 172.811 193.3 174.411 192.4C179.011 189.7 181.511 184.2 181.511 177.1C181.511 169.8 179.911 166.1 174.811 162.3C171.311 159.6 170.711 159.5 157.311 159.2L143.511 158.8V185.4ZM166.411 170.3C169.911 172 171.011 176 169.111 180.3C167.911 183.2 166.811 184.1 163.611 185C161.411 185.6 158.411 185.8 157.011 185.4C154.711 184.8 154.511 184.3 154.511 179.5C154.511 176.6 154.811 172.8 155.111 171C155.811 167.9 155.911 167.8 159.911 168.4C162.111 168.8 165.011 169.6 166.411 170.3Z" fill="black"/>
<path d="M218.511 185.4V212H233.111C254.011 212 257.711 210 258.311 197.9C258.711 191.2 258.711 191 255.311 187.6L251.811 184.1L253.611 181.3C254.911 179.4 255.511 176.7 255.511 172.7C255.511 167.6 255.111 166.6 252.111 163.2L248.711 159.5L233.611 159.2L218.511 158.9V185.4ZM240.211 169.1C243.511 170.3 244.511 171.7 244.511 175.2C244.511 178.1 242.211 179.2 233.811 180.5L229.511 181.2V174.6V168H233.411C235.611 168 238.611 168.5 240.211 169.1ZM242.711 191.1C246.911 192.2 248.511 195.3 246.611 198.9C245.311 201.2 243.611 201.7 235.311 202.3L229.511 202.7V196.3V190H234.311C236.911 190 240.711 190.5 242.711 191.1Z" fill="black"/>
<path d="M334.511 185.5V212.1L340.711 211.8L346.911 211.5L356.211 194.5L365.511 177.5V194.7V212H371.011H376.511V185.5V158.9L369.811 159.2L363.011 159.5L354.511 175L346.011 190.5L345.711 174.7L345.411 159H340.011H334.511V185.5Z" fill="black"/>
<path d="M392.511 185.5V212H398.011H403.511V201V190H414.011H424.511V201V212H430.011H435.511V185.5V159H430.011H424.511V169.5V180H414.011H403.511V169.5V159H398.011H392.511V185.5Z" fill="black"/>
<path d="M451.511 185.5V212H463.311C472.511 212 475.911 211.6 479.011 210.1C483.511 208.1 488.211 203.1 489.111 199.4C490.211 195.3 488.911 187 486.811 184.2C482.811 178.8 479.911 177.5 470.911 177.1L462.511 176.8V167.9V159H457.011H451.511V185.5ZM474.211 188.6C478.611 191.4 478.411 198 473.711 200.3C472.211 201.1 469.211 202 467.011 202.3L463.011 202.9L463.311 194.6L463.611 186.2L467.811 186.7C470.111 187 473.011 187.8 474.211 188.6Z" fill="black"/>
<path d="M494.511 185.5V212H500.011H505.511V185.5V159H500.011H494.511V185.5Z" fill="black"/>
</svg>
